:FULLY-SPECIFIED
:FORCE-ALL-JOINTS-BE-3DOF
:DEGREES
272
root 8.3321 15.9173 -25.0445 25.4583 67.5201 23.817
lfemur -25.3432 10.9184 -21.1888
ltibia 46.9804 0 0
lfoot -15.2399 -19.6669 0
ltoes 43.6935 0 0
rfemur -41.5644 -0.0897729 12.4466
rtibia 61.4847 0 0
rfoot 1.47444 -7.59126 0
rtoes 17.5531 0 0
lowerback 5.43776 -4.82504 -2.61943
upperback 2.1455 -6.54306 -1.25334
thorax -0.677435 -3.24633 0.582176
lowerneck -5.55345 -10.4395 -4.19106
upperneck 1.43317 -13.8533 5.00766
head 2.18425 -6.85056 1.75252
lclavicle 8.64935e-14 2.73297e-14 0
lhumerus -46.8635 -37.5074 110.174
lradius 60.4527 0 0
lwrist 19.7611 0 0
lhand 15.4405 15.4658 0
lfingers 7.12502 0 0
lthumb 40.2403 40.4011 0
rclavicle 8.64935e-14 2.73297e-14 0
rhumerus -55.0071 1.17112 -90.0261
rradius 56.0118 0 0
rwrist 22.9367 0 0
rhand -25.8714 1.33856 0
rfingers 7.12502 0 0
rthumb 0.669211 -748.58 0
273
root 8.39852 15.9114 -25.0158 26.1759 68.5841 25.0206
lfemur -24.773 10.3194 -21.4488
ltibia 47.0129 0 0
lfoot -15.1122 -20.4388 0
ltoes 43.7763 0 0
rfemur -42.8742 -0.278281 12.8709
rtibia 62.189 0 0
rfoot 2.41227 -6.39853 0
rtoes 16.2064 0 0
lowerback 5.66414 -4.90989 -2.77863
upperback 2.28787 -6.66334 -1.44733
thorax -0.657416 -3.30585 0.487887
lowerneck -5.3634 -10.6195 -4.33532
upperneck 1.39779 -14.0939 5.19096
head 2.1706 -6.96928 1.83006
lclavicle 9.12134e-14 2.57523e-14 0
lhumerus -46.5683 -37.6825 109.696
lradius 60.3803 0 0
lwrist 19.8348 0 0
lhand 15.8702 15.5769 0
lfingers 7.12502 0 0
lthumb 40.6463 40.4042 0
rclavicle 9.12134e-14 2.57523e-14 0
rhumerus -55.6063 1.77571 -91.1747
rradius 56.1435 0 0
rwrist 22.5513 0 0
rhand -26.2553 1.90091 0
rfingers 7.12502 0 0
rthumb 0.298598 -748.024 0
274
root 8.46494 15.9055 -24.987 26.8935 69.648 26.2241
lfemur -24.2028 9.72043 -21.7088
ltibia 47.0454 0 0
lfoot -14.9845 -21.2107 0
ltoes 43.859 0 0
rfemur -44.1841 -0.46679 13.2952
rtibia 62.8933 0 0
rfoot 3.35011 -5.20579 0
rtoes 14.8598 0 0
lowerback 5.89051 -4.99473 -2.93783
upperback 2.43023 -6.78363 -1.64132
thorax -0.637398 -3.36537 0.393598
lowerneck -5.17336 -10.7995 -4.47957
upperneck 1.36241 -14.3344 5.37427
head 2.15695 -7.08799 1.90761
lclavicle 9.59334e-14 2.41748e-14 0
lhumerus -46.273 -37.8576 109.218
lradius 60.308 0 0
lwrist 19.9085 0 0
lhand 16.2999 15.6881 0
lfingers 7.12502 0 0
lthumb 41.0523 40.4073 0
rclavicle 9.59334e-14 2.41748e-14 0
rhumerus -56.2055 2.38031 -92.3232
rradius 56.2753 0 0
rwrist 22.166 0 0
rhand -26.6391 2.46326 0
rfingers 7.12502 0 0
rthumb -0.0720145 -747.468 0
275
root 8.53137 15.8995 -24.9582 27.6111 70.712 27.4276
lfemur -23.6327 9.12141 -21.9689
ltibia 47.0778 0 0
lfoot -14.8569 -21.9826 0
ltoes 43.9418 0 0
rfemur -45.4939 -0.655298 13.7195
rtibia 63.5976 0 0
rfoot 4.28795 -4.01305 0
rtoes 13.5131 0 0
lowerback 6.11689 -5.07958 -3.09703
upperback 2.5726 -6.90391 -1.83531
thorax -0.61738 -3.42489 0.299309
lowerneck -4.98331 -10.9795 -4.62383
upperneck 1.32703 -14.575 5.55757
head 2.14331 -7.20671 1.98515
lclavicle 1.00653e-13 2.25974e-14 0
lhumerus -45.9777 -38.0326 108.739
lradius 60.2356 0 0
lwrist 19.9822 0 0
lhand 16.7297 15.7993 0
lfingers 7.12502 0 0
lthumb 41.4584 40.4105 0
rclavicle 1.00653e-13 2.25974e-14 0
rhumerus -56.8048 2.9849 -93.4718
rradius 56.4071 0 0
rwrist 21.7806 0 0
rhand -27.0229 3.02561 0
rfingers 7.12502 0 0
rthumb -0.442627 -746.911 0
276
root 8.59779 15.8936 -24.9294 28.3287 71.776 28.6312
lfemur -23.0625 8.5224 -22.2289
ltibia 47.1103 0 0
lfoot -14.7292 -22.7545 0
ltoes 44.0246 0 0
rfemur -46.8037 -0.843806 14.1438
rtibia 64.3019 0 0
rfoot 5.22578 -2.82032 0
rtoes 12.1664 0 0
lowerback 6.34326 -5.16443 -3.25623
upperback 2.71496 -7.0242 -2.0293
thorax -0.597362 -3.48441 0.20502
lowerneck -4.79327 -11.1595 -4.76809
upperneck 1.29165 -14.8155 5.74088
head 2.12966 -7.32543 2.06269
lclavicle 1.05373e-13 2.10199e-14 0
lhumerus -45.6825 -38.2077 108.261
lradius 60.1632 0 0
lwrist 20.0559 0 0
lhand 17.1594 15.9104 0
lfingers 7.12502 0 0
lthumb 41.8644 40.4136 0
rclavicle 1.05373e-13 2.10199e-14 0
rhumerus -57.404 3.58949 -94.6204
rradius 56.5389 0 0
rwrist 21.3953 0 0
rhand -27.4067 3.58796 0
rfingers 7.12502 0 0
rthumb -0.81324 -746.355 0
277
root 8.66421 15.8876 -24.9006 29.0463 72.8399 29.8347
lfemur -22.4923 7.92339 -22.489
ltibia 47.1428 0 0
lfoot -14.6015 -23.5264 0
ltoes 44.1073 0 0
rfemur -48.1136 -1.03231 14.5682
rtibia 65.0062 0 0
rfoot 6.16362 -1.62758 0
rtoes 10.8197 0 0
lowerback 6.56964 -5.24927 -3.41543
upperback 2.85733 -7.14448 -2.22329
thorax -0.577344 -3.54393 0.110732
lowerneck -4.60322 -11.3394 -4.91235
upperneck 1.25627 -15.0561 5.92418
head 2.11602 -7.44415 2.14024
lclavicle 1.10093e-13 1.94425e-14 0
lhumerus -45.3872 -38.3827 107.783
lradius 60.0909 0 0
lwrist 20.1296 0 0
lhand 17.5891 16.0216 0
lfingers 7.12502 0 0
lthumb 42.2705 40.4167 0
rclavicle 1.10093e-13 1.94425e-14 0
rhumerus -58.0032 4.19408 -95.769
rradius 56.6707 0 0
rwrist 21.0099 0 0
rhand -27.7905 4.15031 0
rfingers 7.12502 0 0
rthumb -1.18385 -745.799 0
278
root 8.73063 15.8817 -24.8719 29.7639 73.9039 31.0382
lfemur -21.9221 7.32438 -22.749
ltibia 47.1753 0 0
lfoot -14.4738 -24.2983 0
ltoes 44.1901 0 0
rfemur -49.4234 -1.22082 14.9925
rtibia 65.7105 0 0
rfoot 7.10146 -0.434843 0
rtoes 9.47303 0 0
lowerback 6.79602 -5.33412 -3.57463
upperback 2.99969 -7.26477 -2.41728
thorax -0.557326 -3.60345 0.0164427
lowerneck -4.41318 -11.5194 -5.0566
upperneck 1.22089 -15.2966 6.10749
head 2.10237 -7.56286 2.21778
lclavicle 1.14813e-13 1.7865e-14 0
lhumerus -45.0919 -38.5578 107.305
lradius 60.0185 0 0
lwrist 20.2033 0 0
lhand 18.0188 16.1328 0
lfingers 7.12502 0 0
lthumb 42.6765 40.4198 0
rclavicle 1.14813e-13 1.7865e-14 0
rhumerus -58.6024 4.79868 -96.9175
rradius 56.8025 0 0
rwrist 20.6246 0 0
rhand -28.1744 4.71266 0
rfingers 7.12502 0 0
rthumb -1.55446 -745.243 0
279
root 8.79705 15.8757 -24.8431 30.4815 74.9678 32.2418
lfemur -21.352 6.72537 -23.0091
ltibia 47.2077 0 0
lfoot -14.3461 -25.0702 0
ltoes 44.2728 0 0
rfemur -50.7333 -1.40933 15.4168
rtibia 66.4148 0 0
rfoot 8.03929 0.757894 0
rtoes 8.12635 0 0
lowerback 7.02239 -5.41896 -3.73383
upperback 3.14206 -7.38505 -2.61127
thorax -0.537308 -3.66297 -0.0778461
lowerneck -4.22313 -11.6994 -5.20086
upperneck 1.18551 -15.5372 6.29079
head 2.08873 -7.68158 2.29533
lclavicle 1.19533e-13 1.62876e-14 0
lhumerus -44.7967 -38.7328 106.827
lradius 59.9462 0 0
lwrist 20.277 0 0
lhand 18.4485 16.2439 0
lfingers 7.12502 0 0
lthumb 43.0826 40.423 0
rclavicle 1.19533e-13 1.62876e-14 0
rhumerus -59.2017 5.40327 -98.0661
rradius 56.9343 0 0
rwrist 20.2392 0 0
rhand -28.5582 5.27501 0
rfingers 7.12502 0 0
rthumb -1.92508 -744.686 0
280
root 8.86347 15.8698 -24.8143 31.1991 76.0318 33.4453
lfemur -20.7818 6.12636 -23.2691
ltibia 47.2402 0 0
lfoot -14.2184 -25.8421 0
ltoes 44.3556 0 0
rfemur -52.0431 -1.59784 15.8411
rtibia 67.1191 0 0
rfoot 8.97713 1.95063 0
rtoes 6.77967 0 0
lowerback 7.24877 -5.50381 -3.89303
upperback 3.28442 -7.50534 -2.80526
thorax -0.51729 -3.72249 -0.172135
lowerneck -4.03309 -11.8794 -5.34512
upperneck 1.15013 -15.7777 6.4741
head 2.07508 -7.8003 2.37287
lclavicle 1.24253e-13 1.47101e-14 0
lhumerus -44.5014 -38.9079 106.349
lradius 59.8738 0 0
lwrist 20.3507 0 0
lhand 18.8782 16.3551 0
lfingers 7.12502 0 0
lthumb 43.4886 40.4261 0
rclavicle 1.24253e-13 1.47101e-14 0
rhumerus -59.8009 6.00786 -99.2147
rradius 57.0661 0 0
rwrist 19.8539 0 0
rhand -28.942 5.83736 0
rfingers 7.12502 0 0
rthumb -2.29569 -744.13 0
281
root 8.86426 15.8587 -24.7776 30.5644 75.2803 32.7945
lfemur -20.6633 6.60149 -23.0964
ltibia 47.3459 0 0
lfoot -14.441 -25.6813 0
ltoes 44.7323 0 0
rfemur -52.3067 -2.27096 16.5326
rtibia 66.9014 0 0
rfoot 9.0062 2.53085 0
rtoes 5.87428 0 0
lowerback 7.33522 -5.41087 -4.02225
upperback 3.33772 -7.39376 -2.84548
thorax -0.504851 -3.66809 -0.14738
lowerneck -4.08514 -11.8258 -5.22226
upperneck 0.980573 -15.7018 6.61674
head 2.02692 -7.7632 2.4049
lclavicle 1.1895e-13 1.42869e-14 0
lhumerus -44.499 -39.128 106.197
lradius 59.8288 0 0
lwrist 20.3088 0 0
lhand 18.747 16.1726 0
lfingers 7.12502 0 0
lthumb 43.3655 40.284 0
rclavicle 1.1895e-13 1.42869e-14 0
rhumerus -58.1589 7.7079 -97.56
rradius 57.7042 0 0
rwrist 19.0537 0 0
rhand -27.524 5.53486 0
rfingers 7.12502 0 0
rthumb -0.935655 -744.281 0
282
root 8.86504 15.8477 -24.7409 29.9296 74.5288 32.1437
lfemur -20.5447 7.07662 -22.9238
ltibia 47.4516 0 0
lfoot -14.6635 -25.5205 0
ltoes 45.1091 0 0
rfemur -52.5702 -2.94408 17.2242
rtibia 66.6837 0 0
rfoot 9.03528 3.11107 0
rtoes 4.96889 0 0
lowerback 7.42168 -5.31793 -4.15148
upperback 3.39103 -7.28219 -2.88571
thorax -0.492412 -3.61369 -0.122624
lowerneck -4.1372 -11.7722 -5.09941
upperneck 0.811015 -15.6258 6.75938
head 1.97876 -7.72609 2.43692
lclavicle 1.13646e-13 1.38637e-14 0
lhumerus -44.4967 -39.3481 106.045
lradius 59.7839 0 0
lwrist 20.2668 0 0
lhand 18.6157 15.9901 0
lfingers 7.12502 0 0
lthumb 43.2424 40.142 0
rclavicle 1.13646e-13 1.38637e-14 0
rhumerus -56.5168 9.40794 -95.9054
rradius 58.3422 0 0
rwrist 18.2535 0 0
rhand -26.1061 5.23236 0
rfingers 7.12502 0 0
rthumb 0.42438 -744.432 0
